<svg width="183" height="53" viewBox="0 0 183 53" fill="none" xmlns="http://www.w3.org/2000/svg">
<path d="M63.6406 41.1406C62.6328 41.0469 61.4551 41 60.1074 41H58.7188L66.3652 19.5723C66.7051 18.6113 66.875 18.0547 66.875 17.9023C66.875 17.7383 66.8691 17.6387 66.8574 17.6035L66.875 17.5684C67.6367 17.6035 68.4453 17.6211 69.3008 17.6211C70.0039 17.6211 70.8477 17.6094 71.832 17.5859L71.8496 17.6211C71.8262 17.668 71.8145 17.7324 71.8145 17.8145C71.8145 18.0371 71.9902 18.6289 72.3418 19.5898L80.1465 41.0527C79.9121 41.041 79.6367 41.0352 79.3203 41.0352C79.3203 41.0352 79.0156 41.0234 78.4062 41C78.1133 41 77.8496 41 77.6152 41H74.8906L73.2383 35.9375H65.293L63.6406 41.1406ZM71.8672 31.7188L69.2129 23.5449L66.6289 31.7188H71.8672ZM86.4219 41C84.6992 41 83.5566 41.0352 82.9941 41.1055V17.5156C83.2754 17.5859 83.8555 17.6211 84.7344 17.6211C85.625 17.6211 86.6562 17.5977 87.8281 17.5508V36.7812H91.4668C92.5215 36.7812 93.3652 36.7461 93.998 36.6758C93.916 39.418 93.875 40.8418 93.875 40.9473V41.123C92.7266 41.041 90.7988 41 88.0918 41H86.4219ZM97.707 17.498C99.3359 17.2871 101.006 17.1816 102.717 17.1816C105.904 17.1816 108.324 17.9316 109.977 19.4316C111.641 20.9199 112.473 23.1523 112.473 26.1289C112.473 28.7891 111.564 30.8926 109.748 32.4395C108.049 33.8926 105.863 34.6191 103.191 34.6191C102.887 34.6191 102.553 34.6016 102.189 34.5664V41H97.707V17.498ZM103.244 21.418C102.893 21.418 102.541 21.4297 102.189 21.4531V30.6992C102.564 30.7461 103.021 30.7695 103.561 30.7695C104.1 30.7695 104.662 30.6582 105.248 30.4355C105.834 30.2012 106.326 29.8789 106.725 29.4688C107.557 28.6133 107.973 27.4883 107.973 26.0938C107.973 22.9766 106.396 21.418 103.244 21.418ZM120.822 41.1055C119.697 41.0352 118.361 41 116.814 41H116.252V17.5332C116.979 17.5918 117.494 17.6211 117.799 17.6211H118.52C119.445 17.6211 120.213 17.5742 120.822 17.4805V26.8496H129.084V17.5332C130.057 17.5918 131 17.6211 131.914 17.6211C132.84 17.6211 133.42 17.5742 133.654 17.4805V41.1055C133.092 41.0352 131.979 41 130.314 41H129.084V31.0684H120.822V41.1055ZM141.758 41.1406C140.75 41.0469 139.572 41 138.225 41H136.836L144.482 19.5723C144.822 18.6113 144.992 18.0547 144.992 17.9023C144.992 17.7383 144.986 17.6387 144.975 17.6035L144.992 17.5684C145.754 17.6035 146.562 17.6211 147.418 17.6211C148.121 17.6211 148.965 17.6094 149.949 17.5859L149.967 17.6211C149.943 17.668 149.932 17.7324 149.932 17.8145C149.932 18.0371 150.107 18.6289 150.459 19.5898L158.264 41.0527C158.029 41.041 157.754 41.0352 157.438 41.0352C157.438 41.0352 157.133 41.0234 156.523 41C156.23 41 155.967 41 155.732 41H153.008L151.355 35.9375H143.41L141.758 41.1406ZM149.984 31.7188L147.33 23.5449L144.746 31.7188H149.984Z" fill="#090909"/>
<path d="M58.9121 42.7578H158.07V43.6367H58.9121V42.7578Z" fill="#090909"/>
<circle cx="22.5" cy="30.5" r="22.5" fill="#2681CB"/>
<path d="M7.875 43V34.1406L10.0371 33.7012L15.2227 16H29.7422L34.9453 33.7012L37.1074 34.1406V43H27.1055L26.1562 38.4648H18.8086L17.877 43H7.875ZM20.3203 32.4355H24.6445L22.4824 22.2578L20.3203 32.4355Z" fill="black"/>
</svg>
